<svg xmlns="http://www.w3.org/2000/svg" viewBox="0 0 432 420" width="432" height="420" shape-rendering="crispEdges">
  <defs>
    <style>
      .g  { fill: #FFD700 }       /* oro antenna */
      .b3 { fill: #1E88E5 }       /* blu chiaro */
      .b2 { fill: #1565C0 }       /* blu medio */
      .b1 { fill: #003F87 }       /* blu oltremare */
      .p  { fill: #4B0082 }       /* indaco */
      .d  { fill: #0A1628 }       /* nero schermo */
      .w  { fill: #E0E0E0 }       /* bianco occhi */
      .bb { fill: #64B5F6 }       /* azzurro dettagli */
    </style>
  </defs>

  <!-- Antenna -->
  <rect x="192" y="0"  width="24" height="24" class="g"/>
  <rect x="216" y="0"  width="24" height="24" class="g"/>
  <rect x="192" y="24" width="24" height="24" class="g"/>
  <rect x="216" y="24" width="24" height="24" class="g"/>

  <!-- Testa - riga 48 -->
  <rect x="120" y="48" width="24" height="24" class="b3"/>
  <rect x="144" y="48" width="24" height="24" class="b2"/>
  <rect x="168" y="48" width="24" height="24" class="b2"/>
  <rect x="192" y="48" width="24" height="24" class="b2"/>
  <rect x="216" y="48" width="24" height="24" class="b2"/>
  <rect x="240" y="48" width="24" height="24" class="b2"/>
  <rect x="264" y="48" width="24" height="24" class="b2"/>
  <rect x="288" y="48" width="24" height="24" class="b3"/>

  <!-- Testa - riga 72 -->
  <rect x="96"  y="72" width="24" height="24" class="b3"/>
  <rect x="120" y="72" width="24" height="24" class="b2"/>
  <rect x="144" y="72" width="24" height="24" class="b2"/>
  <rect x="168" y="72" width="24" height="24" class="b2"/>
  <rect x="192" y="72" width="24" height="24" class="b2"/>
  <rect x="216" y="72" width="24" height="24" class="b2"/>
  <rect x="240" y="72" width="24" height="24" class="b2"/>
  <rect x="264" y="72" width="24" height="24" class="b2"/>
  <rect x="288" y="72" width="24" height="24" class="b2"/>
  <rect x="312" y="72" width="24" height="24" class="b3"/>

  <!-- Testa - riga 96 -->
  <rect x="72"  y="96" width="24" height="24" class="b2"/>
  <rect x="96"  y="96" width="24" height="24" class="b1"/>
  <rect x="120" y="96" width="24" height="24" class="b1"/>
  <rect x="144" y="96" width="24" height="24" class="b1"/>
  <rect x="168" y="96" width="24" height="24" class="b1"/>
  <rect x="192" y="96" width="24" height="24" class="b1"/>
  <rect x="216" y="96" width="24" height="24" class="b1"/>
  <rect x="240" y="96" width="24" height="24" class="b1"/>
  <rect x="264" y="96" width="24" height="24" class="b1"/>
  <rect x="288" y="96" width="24" height="24" class="b1"/>
  <rect x="312" y="96" width="24" height="24" class="b1"/>
  <rect x="336" y="96" width="24" height="24" class="b2"/>

  <!-- Braccia/spalle - riga 144 -->
  <rect x="48"  y="144" width="24" height="24" class="bb"/>
  <rect x="360" y="144" width="24" height="24" class="bb"/>

  <!-- Testa / lati - riga 120 -->
  <rect x="72"  y="120" width="24" height="24" class="b2"/>
  <rect x="96"  y="120" width="24" height="24" class="b1"/>
  <rect x="336" y="120" width="24" height="24" class="b2"/>
  <rect x="312" y="120" width="24" height="24" class="b1"/>

  <!-- Schermo (viso) - riga 120-216 -->
  <rect x="120" y="120" width="24" height="24" class="d"/>
  <rect x="144" y="120" width="24" height="24" class="d"/>
  <rect x="168" y="120" width="24" height="24" class="d"/>
  <rect x="192" y="120" width="24" height="24" class="d"/>
  <rect x="216" y="120" width="24" height="24" class="d"/>
  <rect x="240" y="120" width="24" height="24" class="d"/>
  <rect x="264" y="120" width="24" height="24" class="d"/>
  <rect x="288" y="120" width="24" height="24" class="d"/>

  <!-- Schermo riga 144 (con occhi) -->
  <!-- Bordo schermo sx -->
  <rect x="72"  y="144" width="24" height="24" class="b2"/>
  <rect x="96"  y="144" width="24" height="24" class="b1"/>
  <rect x="336" y="144" width="24" height="24" class="b2"/>
  <rect x="312" y="144" width="24" height="24" class="b1"/>

  <!-- Occhi 2x2 pixel block (sinistro) -->
  <rect x="120" y="144" width="24" height="24" class="d"/>
  <rect x="144" y="144" width="24" height="24" class="p"/>
  <rect x="168" y="144" width="24" height="24" class="p"/>
  <rect x="192" y="144" width="24" height="24" class="d"/>
  <!-- Spazio tra occhi -->
  <rect x="216" y="144" width="24" height="24" class="d"/>
  <rect x="240" y="144" width="24" height="24" class="d"/>
  <!-- Occhi 2x2 pixel block (destro) -->
  <rect x="264" y="144" width="24" height="24" class="p"/>
  <rect x="288" y="144" width="24" height="24" class="p"/>
  <!-- Fine schermo -->

  <!-- Schermo riga 168 (occhi continuano) -->
  <rect x="72"  y="168" width="24" height="24" class="b2"/>
  <rect x="96"  y="168" width="24" height="24" class="b1"/>
  <rect x="336" y="168" width="24" height="24" class="b2"/>
  <rect x="312" y="168" width="24" height="24" class="b1"/>

  <rect x="120" y="168" width="24" height="24" class="d"/>
  <rect x="144" y="168" width="24" height="24" class="p"/>
  <rect x="168" y="168" width="24" height="24" class="p"/>
  <rect x="192" y="168" width="24" height="24" class="d"/>
  <rect x="216" y="168" width="24" height="24" class="d"/>
  <rect x="240" y="168" width="24" height="24" class="d"/>
  <rect x="264" y="168" width="24" height="24" class="p"/>
  <rect x="288" y="168" width="24" height="24" class="p"/>

  <!-- Schermo riga 192 (bocca) -->
  <rect x="72"  y="192" width="24" height="24" class="b2"/>
  <rect x="96"  y="192" width="24" height="24" class="b1"/>
  <rect x="336" y="192" width="24" height="24" class="b2"/>
  <rect x="312" y="192" width="24" height="24" class="b1"/>

  <rect x="120" y="192" width="24" height="24" class="d"/>
  <rect x="144" y="192" width="24" height="24" class="d"/>
  <rect x="168" y="192" width="24" height="24" class="d"/>
  <rect x="192" y="192" width="24" height="24" class="d"/>
  <rect x="216" y="192" width="24" height="24" class="d"/>
  <rect x="240" y="192" width="24" height="24" class="d"/>
  <rect x="264" y="192" width="24" height="24" class="d"/>
  <rect x="288" y="192" width="24" height="24" class="d"/>

  <!-- Schermo riga 216 (bocca pixel) -->
  <rect x="72"  y="216" width="24" height="24" class="b2"/>
  <rect x="96"  y="216" width="24" height="24" class="b1"/>
  <rect x="336" y="216" width="24" height="24" class="b2"/>
  <rect x="312" y="216" width="24" height="24" class="b1"/>

  <rect x="120" y="216" width="24" height="24" class="d"/>
  <rect x="144" y="216" width="24" height="24" class="d"/>
  <rect x="168" y="216" width="24" height="24" class="d"/>
  <rect x="192" y="216" width="24" height="24" class="p"/>
  <rect x="216" y="216" width="24" height="24" class="p"/>
  <rect x="240" y="216" width="24" height="24" class="d"/>
  <rect x="264" y="216" width="24" height="24" class="d"/>
  <rect x="288" y="216" width="24" height="24" class="d"/>

  <!-- Schermo ultima riga - riga 240 -->
  <rect x="72"  y="240" width="24" height="24" class="b2"/>
  <rect x="96"  y="240" width="24" height="24" class="b1"/>
  <rect x="336" y="240" width="24" height="24" class="b2"/>
  <rect x="312" y="240" width="24" height="24" class="b1"/>

  <rect x="120" y="240" width="24" height="24" class="d"/>
  <rect x="144" y="240" width="24" height="24" class="d"/>
  <rect x="168" y="240" width="24" height="24" class="d"/>
  <rect x="192" y="240" width="24" height="24" class="d"/>
  <rect x="216" y="240" width="24" height="24" class="d"/>
  <rect x="240" y="240" width="24" height="24" class="d"/>
  <rect x="264" y="240" width="24" height="24" class="d"/>
  <rect x="288" y="240" width="24" height="24" class="d"/>

  <!-- Chiusura testa - riga 264 -->
  <rect x="72"  y="264" width="24" height="24" class="b2"/>
  <rect x="96"  y="264" width="24" height="24" class="b1"/>
  <rect x="120" y="264" width="24" height="24" class="b1"/>
  <rect x="144" y="264" width="24" height="24" class="b1"/>
  <rect x="168" y="264" width="24" height="24" class="b1"/>
  <rect x="192" y="264" width="24" height="24" class="b1"/>
  <rect x="216" y="264" width="24" height="24" class="b1"/>
  <rect x="240" y="264" width="24" height="24" class="b1"/>
  <rect x="264" y="264" width="24" height="24" class="b1"/>
  <rect x="288" y="264" width="24" height="24" class="b1"/>
  <rect x="312" y="264" width="24" height="24" class="b1"/>
  <rect x="336" y="264" width="24" height="24" class="b2"/>

  <!-- Transizione testa-corpo - riga 288 -->
  <rect x="96"  y="288" width="24" height="24" class="b3"/>
  <rect x="120" y="288" width="24" height="24" class="b2"/>
  <rect x="144" y="288" width="24" height="24" class="b2"/>
  <rect x="168" y="288" width="24" height="24" class="b2"/>
  <rect x="192" y="288" width="24" height="24" class="b2"/>
  <rect x="216" y="288" width="24" height="24" class="b2"/>
  <rect x="240" y="288" width="24" height="24" class="b2"/>
  <rect x="264" y="288" width="24" height="24" class="b2"/>
  <rect x="288" y="288" width="24" height="24" class="b2"/>
  <rect x="312" y="288" width="24" height="24" class="b3"/>

  <!-- Corpo - riga 312 -->
  <rect x="120" y="312" width="24" height="24" class="b3"/>
  <rect x="144" y="312" width="24" height="24" class="b2"/>
  <rect x="168" y="312" width="24" height="24" class="b2"/>
  <rect x="192" y="312" width="24" height="24" class="b2"/>
  <rect x="216" y="312" width="24" height="24" class="b2"/>
  <rect x="240" y="312" width="24" height="24" class="b2"/>
  <rect x="264" y="312" width="24" height="24" class="b2"/>
  <rect x="288" y="312" width="24" height="24" class="b3"/>

  <!-- Corpo - riga 336 -->
  <rect x="120" y="336" width="24" height="24" class="b3"/>
  <rect x="144" y="336" width="24" height="24" class="b1"/>
  <rect x="168" y="336" width="24" height="24" class="b1"/>
  <rect x="192" y="336" width="24" height="24" class="b1"/>
  <rect x="216" y="336" width="24" height="24" class="b1"/>
  <rect x="240" y="336" width="24" height="24" class="b1"/>
  <rect x="264" y="336" width="24" height="24" class="b1"/>
  <rect x="288" y="336" width="24" height="24" class="b3"/>

  <!-- Corpo - riga 360 -->
  <rect x="120" y="360" width="24" height="24" class="b3"/>
  <rect x="144" y="360" width="24" height="24" class="b1"/>
  <rect x="168" y="360" width="24" height="24" class="p"/>
  <rect x="192" y="360" width="24" height="24" class="p"/>
  <rect x="216" y="360" width="24" height="24" class="p"/>
  <rect x="240" y="360" width="24" height="24" class="p"/>
  <rect x="264" y="360" width="24" height="24" class="b1"/>
  <rect x="288" y="360" width="24" height="24" class="b3"/>

  <!-- Gambe -->
  <rect x="120" y="384" width="24" height="24" class="b3"/>
  <rect x="144" y="384" width="24" height="24" class="b2"/>
  <rect x="168" y="384" width="24" height="24" class="b2"/>
  <rect x="192" y="384" width="24" height="24" class="b2"/>
  <rect x="216" y="384" width="24" height="24" class="b2"/>
  <rect x="240" y="384" width="24" height="24" class="b2"/>
  <rect x="264" y="384" width="24" height="24" class="b2"/>
  <rect x="288" y="384" width="24" height="24" class="b3"/>

  <!-- Braccia esterne (spalle) -->
  <rect x="48"  y="168" width="24" height="24" class="bb"/>
  <rect x="360" y="168" width="24" height="24" class="bb"/>
  <rect x="48"  y="192" width="24" height="24" class="bb"/>
  <rect x="360" y="192" width="24" height="24" class="bb"/>
  <rect x="48"  y="216" width="24" height="24" class="bb"/>
  <rect x="360" y="216" width="24" height="24" class="bb"/>

  <!-- Etichetta -->
  <text x="216" y="400" text-anchor="middle" font-family="'Courier New', monospace" font-size="16" font-weight="bold" fill="#64B5F6" letter-spacing="6">MLPG</text>
</svg>
